<svg width="28" height="28" viewBox="0 0 28 28" fill="none" xmlns="http://www.w3.org/2000/svg">
<path d="M14 0.666626C6.64 0.666626 0.666672 6.63996 0.666672 14C0.666672 21.36 6.64 27.3333 14 27.3333H20.6667V24.6666H14C8.21334 24.6666 3.33334 19.7866 3.33334 14C3.33334 8.21329 8.21334 3.33329 14 3.33329C19.7867 3.33329 24.6667 8.21329 24.6667 14V15.9066C24.6667 16.96 23.72 18 22.6667 18C21.6133 18 20.6667 16.96 20.6667 15.9066V14C20.6667 10.32 17.68 7.33329 14 7.33329C10.32 7.33329 7.33334 10.32 7.33334 14C7.33334 17.68 10.32 20.6666 14 20.6666C15.84 20.6666 17.52 19.92 18.72 18.7066C19.5867 19.8933 21.08 20.6666 22.6667 20.6666C25.2933 20.6666 27.3333 18.5333 27.3333 15.9066V14C27.3333 6.63996 21.36 0.666626 14 0.666626ZM14 18C11.7867 18 10 16.2133 10 14C10 11.7866 11.7867 9.99996 14 9.99996C16.2133 9.99996 18 11.7866 18 14C18 16.2133 16.2133 18 14 18Z" fill="white"/>
</svg>
