<svg width="681" height="692" viewBox="0 0 681 692" fill="none" xmlns="http://www.w3.org/2000/svg">
<mask id="mask0_20_45" style="mask-type:alpha" maskUnits="userSpaceOnUse" x="0" y="0" width="760" height="792">
<rect y="792" width="792" height="760" transform="rotate(-90 0 792)" fill="#D9D9D9"/>
</mask>
<g mask="url(#mask0_20_45)">
<path d="M666.342 40.5152H610.144L579.543 93.5394L639.707 93.5394L668.216 142.924H609.107L639.18 195.039L610.162 245.334L555.018 245.334C554.618 243.805 553.236 242.677 551.58 242.677C551.253 242.677 550.943 242.732 550.652 242.823L522.817 194.602L522.562 194.147H461.36L491.434 246.243L461.87 297.448L491.415 348.653L462.379 398.947H404.325L374.252 346.833L344.179 398.947H284.014L314.36 451.517L314.615 451.972H372.669L345.616 498.827C345.325 498.755 345.016 498.682 344.688 498.682C343.033 498.682 341.65 499.81 341.25 501.338H226.997L197.706 450.589L197.452 450.134L136.25 450.134L166.596 502.703L166.851 503.158H225.96L254.996 553.453L226.488 602.838L197.724 552.998L197.47 552.543H136.268L166.614 605.112L166.869 605.567H284.032L256.979 652.423C256.688 652.35 256.379 652.277 256.051 652.277C254.396 652.277 253.013 653.406 252.613 654.934H196.414L167.397 705.156L138.888 655.771L139.416 654.861H138.36L137.833 653.952L137.305 654.861H78.1959L50.1057 703.537C49.8146 703.464 49.5053 703.391 49.1779 703.391C47.213 703.391 45.612 704.992 45.612 706.958C45.612 708.923 47.213 710.524 49.1779 710.524C50.8334 710.524 52.2161 709.396 52.6164 707.867H107.76L137.833 760L167.378 708.795L196.16 758.635L196.414 759.09H255.524L256.051 760L256.579 759.09H315.688L344.706 708.832L373.488 758.69L373.743 759.145H434.944L404.598 706.575L404.343 706.121H346.271L346.289 706.084H286.125L258.562 658.337C258.999 657.9 259.326 657.336 259.49 656.717H315.688L344.706 606.423L373.47 656.262L373.724 656.717H432.852L460.396 704.428C459.741 705.083 459.341 705.975 459.341 706.958C459.341 708.923 460.942 710.524 462.907 710.524C464.562 710.524 465.945 709.396 466.345 707.867H580.525L609.871 758.672L610.125 759.127H671.327L671.272 759.054H729.381L758.927 707.849H759.982L759.454 706.939L759.982 706.03H758.927L729.636 655.28L729.381 654.825L668.18 654.825L696.815 704.41C696.16 705.065 695.76 705.957 695.76 706.939C695.76 707.94 696.16 708.832 696.815 709.469L669.744 756.361L641.745 707.849H641.8L611.726 655.735L641.8 603.62H581.617L552.344 552.925L552.089 552.47H495.891C495.491 550.942 494.108 549.814 492.452 549.814C490.488 549.814 488.887 551.415 488.887 553.38C488.887 555.345 490.488 556.947 492.452 556.947C492.78 556.947 493.089 556.892 493.38 556.801L521.216 605.021L521.47 605.476H579.506L551.034 654.807H433.853L404.853 604.567L434.926 552.452H374.78L347.217 504.705C347.654 504.268 347.981 503.704 348.145 503.085H404.343L432.433 454.41C432.725 454.483 433.034 454.556 433.361 454.556C433.689 454.556 433.998 454.501 434.289 454.41L462.125 502.63L462.379 503.085H580.525L607.924 550.541C607.014 551.197 606.414 552.252 606.414 553.453C606.414 555.418 608.015 557.019 609.98 557.019C611.635 557.019 613.018 555.891 613.418 554.363H671.327L641.781 503.158H699.835L730.436 450.134H669.235L640.235 500.374L611.708 450.971L639.271 403.205C639.562 403.278 639.871 403.351 640.199 403.351C642.163 403.351 643.764 401.75 643.764 399.784C643.764 397.819 642.163 396.218 640.199 396.218C638.543 396.218 637.16 397.346 636.76 398.875H522.526L493.49 348.58L521.998 299.195L550.761 349.035L551.016 349.49H610.125L610.653 350.399L611.181 349.49H669.235L698.526 400.239L698.78 400.694H759.982L729.636 348.125L729.381 347.67H671.327L699.835 298.285H700.891L700.363 297.375L730.436 245.261H673.201C673.037 244.642 672.71 244.078 672.273 243.641L699.854 195.912H760L730.454 144.708H730.473L700.127 92.1382L699.872 91.6834H641.818L668.871 44.8277C669.162 44.9005 669.471 44.9733 669.799 44.9733C671.763 44.9733 673.365 43.372 673.365 41.4068C673.365 39.4416 671.763 37.8403 669.799 37.8403C668.125 37.8403 666.76 38.9867 666.342 40.5152ZM167.906 603.675L139.397 554.29H196.396L224.905 603.675H167.906ZM403.288 707.94L431.797 757.307H374.798L346.289 707.922H403.288V707.94ZM671.345 656.663L728.344 656.663L756.853 706.03H702.765C702.364 704.501 700.982 703.373 699.326 703.373C698.999 703.373 698.689 703.427 698.398 703.518L671.345 656.663ZM702.765 707.849H756.853L728.344 757.234H671.345L698.398 710.378C698.689 710.451 698.999 710.524 699.326 710.524C700.982 710.524 702.364 709.378 702.765 707.849ZM669.253 144.726L697.743 194.093H640.744L612.236 144.708H669.253V144.726ZM666.342 247.117C666.506 247.736 666.815 248.3 667.27 248.736L640.235 295.574L612.254 247.099H666.342V247.117ZM580.598 296.502H523.599L550.652 249.646C550.943 249.719 551.253 249.792 551.58 249.792C553.236 249.792 554.618 248.664 555.018 247.135L609.107 247.135L580.598 296.502ZM548.141 247.117C548.305 247.736 548.633 248.3 549.069 248.736L522.034 295.574L494.053 247.099H548.141V247.117ZM582.181 297.412L610.689 248.027L623.643 270.463L639.198 297.412L610.689 346.797L597.736 324.36L582.181 297.412ZM641.818 296.502L668.871 249.646C669.162 249.719 669.471 249.792 669.799 249.792C670.126 249.792 670.435 249.737 670.727 249.646L697.78 296.502H641.818ZM521.489 195.912L549.051 243.659C548.615 244.096 548.287 244.66 548.123 245.279H492.98L464.49 195.912H521.489ZM429.923 450.079H375.835L404.343 400.694H461.342L434.289 447.568C433.998 447.495 433.689 447.423 433.361 447.423C431.706 447.423 430.323 448.551 429.923 450.079ZM436.8 450.079C436.636 449.461 436.309 448.896 435.872 448.46L462.907 401.622L490.888 450.079H436.8ZM402.76 399.803L374.252 449.188L360.28 424.968L345.762 399.803L374.27 350.418L402.76 399.803ZM315.67 450.079L287.162 400.694H344.161L372.669 450.079H315.67ZM167.906 501.284L139.397 451.899H196.396L224.905 501.284H167.906ZM285.069 503.104L294.403 519.262L313.578 552.488H256.579L228.07 503.104H285.069ZM372.687 554.308L358.442 579.001L344.197 603.693H287.198L301.443 579.001L315.688 554.308H372.687ZM228.07 603.675L256.579 554.29H313.578L299.333 578.982L285.088 603.675H228.07ZM252.613 656.699C252.777 657.318 253.086 657.882 253.541 658.319L225.978 706.066H168.979L197.488 656.681H252.613V656.699ZM79.251 656.699H136.25L107.741 706.084H52.5982C52.4344 705.465 52.1252 704.901 51.6703 704.465L79.251 656.699ZM109.342 706.976L137.851 657.591L165.832 706.066L166.36 706.976L165.832 707.886L137.833 756.361L109.342 706.976ZM197.47 757.271L168.961 707.886H225.96L254.469 757.271H197.47ZM257.634 757.271L286.143 707.886H343.142L314.633 757.271H257.634ZM284.56 706.976L256.051 756.361L243.098 733.925L227.543 706.976L255.105 659.21C255.396 659.283 255.706 659.356 256.033 659.356C256.361 659.356 256.67 659.301 256.961 659.21L284.56 706.976ZM259.49 654.88C259.326 654.261 259.017 653.697 258.562 653.26L286.125 605.513H343.124L314.615 654.898H259.49V654.88ZM374.78 654.88L346.271 605.495H403.27L431.779 654.88H374.78ZM466.364 706.03C465.963 704.501 464.581 703.373 462.925 703.373C462.598 703.373 462.288 703.427 461.997 703.518L434.944 656.663H491.943L520.452 706.048H466.364V706.03ZM551.052 656.663L579.561 706.048H522.562L494.053 656.663H551.052ZM639.689 707.94L668.198 757.307H611.199L582.69 707.922H639.689V707.94ZM581.653 706.03L553.145 656.645H610.144L638.652 706.03H581.653ZM522.544 603.675L494.981 555.928C495.418 555.491 495.745 554.927 495.909 554.308H551.052L579.561 603.693H522.544V603.675ZM582.672 605.458H638.652L610.144 654.843H553.145L581.617 605.513H582.69L582.672 605.458ZM431.779 554.308L403.27 603.693H346.271L360.516 579.001L374.761 554.308H431.779ZM372.687 552.488H315.688L299.406 524.266L287.198 503.104H341.286C341.686 504.632 343.069 505.76 344.725 505.76C345.052 505.76 345.361 505.706 345.652 505.615L372.687 552.488ZM403.288 501.284H348.145C347.981 500.665 347.672 500.101 347.217 499.664L374.78 451.917H429.923C430.087 452.536 430.396 453.1 430.851 453.537L403.288 501.284ZM463.453 501.284L435.89 453.537C436.327 453.1 436.654 452.536 436.818 451.917H491.961L492.489 452.827L520.47 501.302H463.453V501.284ZM581.653 501.284L553.145 451.899H610.144L638.652 501.284H581.653ZM551.052 451.899L579.561 501.284H522.562L494.053 451.899H551.052ZM668.198 552.561H613.455C613.054 551.033 611.672 549.905 610.016 549.905C609.907 549.905 609.798 549.923 609.689 549.941L582.708 503.194H639.707L668.198 552.561ZM727.307 451.99L698.798 501.375H641.8L670.308 451.99H727.307ZM636.797 400.712C636.96 401.331 637.269 401.895 637.724 402.332L610.162 450.079H553.163L581.671 400.694H636.797V400.712ZM551.052 450.079H494.053L522.562 400.694H579.561L551.052 450.079ZM520.979 399.803L492.471 449.188L463.962 399.821L464.49 398.911L492.471 350.436L520.979 399.803ZM463.962 297.412L492.471 248.027L520.452 296.502L520.979 297.412L520.452 298.321L492.471 346.797L463.962 297.412ZM552.108 347.688L523.599 298.303H580.598L609.107 347.688H552.108ZM728.362 349.508L756.871 398.893H699.872L671.363 349.508H728.362ZM669.271 347.688H612.272L640.781 298.303H697.78L669.271 347.688ZM699.344 295.592L672.309 248.755C672.746 248.318 673.073 247.754 673.237 247.135H727.325L699.344 295.592ZM666.342 245.297H612.254L640.763 195.912H697.761L670.708 242.768C670.417 242.695 670.108 242.622 669.781 242.622C668.125 242.641 666.76 243.769 666.342 245.297ZM756.853 194.093H699.872L671.363 144.708H728.362L756.853 194.093ZM698.817 93.5212L727.325 142.906H670.326L641.818 93.5212H698.817ZM639.707 91.7016L582.708 91.7016L611.217 42.3166H666.36C666.524 42.9353 666.833 43.4994 667.288 43.9361L639.707 91.7016ZM296.185 -626L266.64 -574.795L237.877 -624.635L237.622 -625.09H178.494L177.967 -626L177.439 -625.09H118.33L89.3118 -574.832L60.5304 -624.69L60.2757 -625.145H-0.925903L29.4202 -572.575L29.6749 -572.121H87.7472L87.729 -572.084H147.894L175.456 -524.337C175.019 -523.9 174.692 -523.336 174.528 -522.717H59.2386L29.6931 -471.513H-29.4163L-57.5064 -422.837C-57.8157 -422.928 -58.125 -422.983 -58.4525 -422.983C-58.7799 -422.983 -59.0892 -422.928 -59.3803 -422.837L-87.2157 -471.058L-87.4704 -471.513H-145.506L-117.034 -520.843H2.22153L-26.3962 -570.41C-25.7413 -571.065 -25.3411 -571.957 -25.3411 -572.939C-25.3411 -574.905 -26.942 -576.506 -28.9069 -576.506C-30.5624 -576.506 -31.9451 -575.378 -32.3454 -573.849H-146.525L-175.871 -624.672L-176.125 -625.127H-237.327L-207.727 -573.849H-207.781L-177.708 -521.753L-207.781 -469.639H-147.599L-118.326 -418.943L-118.071 -418.489H-61.8727C-61.4725 -416.96 -60.0898 -415.832 -58.4342 -415.832C-56.7787 -415.832 -55.396 -416.96 -54.9958 -418.489H1.2027L30.7483 -469.693H88.8024L117.311 -420.308H59.2568L29.7113 -369.104H28.6561L29.1837 -368.194L28.6561 -367.284H29.7113L59.0021 -316.534L59.2568 -316.079H120.458L91.8407 -365.646C92.4956 -366.301 92.8958 -367.193 92.8958 -368.176C92.8958 -369.158 92.4956 -370.068 91.8407 -370.705L119.403 -418.452H238.677L208.604 -470.567L237.622 -520.861L266.658 -571.156L295.167 -521.771L294.639 -520.861H295.694L296.222 -519.951L296.749 -520.861H355.859L385.404 -572.066H440.548C440.948 -570.537 442.331 -569.409 443.986 -569.409C445.951 -569.409 447.552 -571.01 447.552 -572.976C447.552 -574.941 445.951 -576.542 443.986 -576.542C443.659 -576.542 443.349 -576.488 443.058 -576.397L415.223 -624.617L414.968 -625.072H353.767L383.312 -573.867H326.313L296.185 -626ZM30.7301 -573.94L2.22153 -623.325H59.2205L87.729 -573.94H30.7301ZM236.548 -623.271L265.057 -573.885H208.058L179.55 -623.271H236.548ZM176.384 -623.271L147.875 -573.885H90.8764L119.385 -623.271H176.384ZM149.458 -572.994L177.967 -622.379L190.92 -599.943L206.475 -572.994L178.913 -525.229C178.622 -525.301 178.312 -525.374 177.985 -525.374C177.657 -525.374 177.348 -525.319 177.057 -525.229L149.458 -572.994ZM119.403 -520.879H174.528C174.692 -520.261 175.019 -519.697 175.456 -519.26L162.139 -496.205L147.894 -471.513H90.8946L105.14 -496.205L119.403 -520.879ZM-117.034 -522.663L-145.543 -572.048H-88.5438L-60.0171 -522.663H-117.034ZM-0.925903 -522.663H-57.9248L-86.4334 -572.048H-32.3454C-31.9451 -570.519 -30.5624 -569.391 -28.9069 -569.391C-28.5794 -569.391 -28.2701 -569.446 -27.979 -569.537L-0.925903 -522.663ZM-205.671 -573.94L-234.179 -623.325H-177.181L-148.672 -573.94H-205.671ZM-147.635 -572.048L-119.126 -522.663H-176.125L-204.634 -572.048H-147.635ZM-204.634 -471.458L-176.125 -520.843H-119.126L-147.599 -471.513H-148.672L-148.654 -471.476H-204.634V-471.458ZM-145.525 -469.693H-88.5256L-60.9631 -421.946C-61.3997 -421.509 -61.7272 -420.945 -61.891 -420.326H-117.034L-145.525 -469.693ZM0.129272 -420.308H-55.0139C-55.1777 -420.927 -55.487 -421.491 -55.9418 -421.928L-28.3793 -469.693H28.6197L0.129272 -420.308ZM60.2939 -520.879H117.293L103.048 -496.187L88.8024 -471.495H31.8035L60.2939 -520.879ZM117.293 -317.917H60.2939L31.7853 -367.302H85.8733C86.2736 -365.774 87.6563 -364.645 89.3118 -364.645C89.6393 -364.645 89.9486 -364.7 90.2397 -364.791L117.293 -317.917ZM85.8733 -369.104H31.7853L60.2939 -418.489H117.293L90.2579 -371.633C89.9668 -371.706 89.6575 -371.778 89.33 -371.778C87.6562 -371.778 86.2736 -370.632 85.8733 -369.104ZM119.403 -420.308L90.8946 -469.693H147.894L176.402 -420.308H119.403ZM178.494 -420.308L149.986 -469.693H206.985L235.493 -420.308H178.494ZM207.003 -471.513H150.004L164.249 -496.205L177.039 -518.368C177.33 -518.296 177.639 -518.223 177.967 -518.223C179.622 -518.223 181.005 -519.351 181.405 -520.879H235.493L207.003 -471.513ZM181.405 -522.699C181.241 -523.318 180.932 -523.882 180.477 -524.319L208.04 -572.066H265.039L236.53 -522.681H181.405V-522.699ZM268.204 -572.084L267.677 -572.994L268.204 -573.904L296.185 -622.379L324.694 -572.994L296.185 -523.609L268.204 -572.084ZM297.75 -522.699L326.259 -572.084H383.258L354.749 -522.699H297.75ZM356.859 -623.271H413.858L441.421 -575.523C440.984 -575.087 440.657 -574.522 440.493 -573.904H385.35L356.859 -623.271ZM0.656921 -320.574C0.329437 -320.574 0.0201111 -320.519 -0.270966 -320.428L-28.1064 -368.649L-28.3611 -369.104H-146.525L-173.924 -416.578C-173.014 -417.233 -172.414 -418.288 -172.414 -419.489C-172.414 -421.454 -174.015 -423.056 -175.98 -423.056C-177.635 -423.056 -179.018 -421.928 -179.418 -420.399H-237.327L-207.781 -369.194H-265.835L-296.436 -316.17H-235.216L-206.217 -366.411L-177.69 -317.007L-205.252 -269.242C-205.544 -269.315 -205.853 -269.387 -206.18 -269.387C-208.145 -269.387 -209.746 -267.786 -209.746 -265.821C-209.746 -263.856 -208.145 -262.254 -206.18 -262.254C-204.525 -262.254 -203.142 -263.383 -202.742 -264.911H-148.654H-88.4892L-59.4531 -214.616L-87.9616 -165.231L-116.725 -215.071L-116.98 -215.526H-176.144L-176.671 -216.436L-177.199 -215.526H-235.235L-264.526 -266.276L-264.78 -266.731H-326L-295.654 -214.161L-295.399 -213.706H-237.345L-265.854 -164.321H-266.909L-266.381 -163.412L-296.454 -111.297H-239.219C-239.055 -110.679 -238.728 -110.114 -238.291 -109.678L-265.835 -61.9305H-325.982L-296.436 -10.7258H-296.454L-266.108 41.8434L-265.854 42.2984H-207.8L-236.308 91.6834H-237.363L-236.836 92.5932L-237.363 93.5031H-236.308L-207.29 143.798L-237.363 195.912H-177.181L-148.672 245.297H-206.744L-237.345 298.321L-266.891 349.526H-206.726L-179.182 397.219C-179.837 397.874 -180.237 398.765 -180.237 399.748C-180.237 401.713 -178.636 403.315 -176.671 403.315C-174.706 403.315 -173.105 401.713 -173.105 399.748C-173.105 398.747 -173.506 397.856 -174.16 397.219L-146.598 349.471H-86.4334L-116.779 296.902L-117.034 296.447H-175.088L-146.58 247.062H-86.4334L-115.051 197.495C-114.615 197.059 -114.287 196.495 -114.123 195.876H-57.9248L-27.3241 142.852H-86.4334L-56.8878 91.647H-118.089L-147.107 141.942L-175.598 92.575L-145.525 40.4606H-205.689L-234.198 -8.92438H-118.089L-88.7985 41.8253L-88.5438 42.2803H-27.3423L-55.96 -7.28674C-55.3051 -7.94177 -54.9048 -8.83337 -54.9048 -9.81598C-54.9048 -11.7812 -56.5058 -13.3824 -58.4706 -13.3824C-60.1262 -13.3824 -61.5089 -12.2543 -61.9091 -10.7258H-117.052L-146.343 -61.4756L-146.598 -61.9305H-204.634L-176.125 -111.315H-120.982C-120.582 -109.787 -119.199 -108.659 -117.544 -108.659C-117.216 -108.659 -116.907 -108.713 -116.616 -108.804L-88.7803 -60.5839L-88.5256 -60.129H-27.3241L-57.3972 -112.243L-27.8517 -163.448L-57.3972 -214.653L-27.8517 -265.857L-56.8878 -316.152H-2.7998C-2.39957 -314.624 -1.01688 -313.495 0.638702 -313.495C2.60355 -313.495 4.20453 -315.097 4.20453 -317.062C4.22275 -318.973 2.62177 -320.574 0.656921 -320.574ZM-29.4163 -367.284L-1.85376 -319.537C-2.29041 -319.1 -2.61786 -318.536 -2.78159 -317.917H-57.9248L-58.4525 -318.827L-86.4334 -367.302H-29.4163V-367.284ZM-145.525 -266.712L-117.016 -316.097H-60.0171L-88.5256 -266.712H-145.525ZM-117.034 -317.917L-145.543 -367.302H-88.5438L-60.0352 -317.917H-117.034ZM-147.635 -367.284L-119.126 -317.899H-176.125L-204.634 -367.284H-147.635ZM-234.179 -418.561H-179.436C-179.036 -417.033 -177.654 -415.905 -175.998 -415.905C-175.889 -415.905 -175.78 -415.923 -175.671 -415.941L-148.69 -369.194H-205.671L-234.179 -418.561ZM-293.289 -317.99L-264.78 -367.375H-207.781L-236.29 -317.99H-293.289ZM-202.76 -266.712C-202.924 -267.331 -203.233 -267.895 -203.688 -268.332L-176.125 -316.079H-119.126L-147.635 -266.694H-202.76V-266.712ZM-148.163 -163.412L-176.671 -114.027L-189.625 -136.463L-205.18 -163.412L-176.671 -212.797L-163.718 -190.361L-148.163 -163.412ZM-232.324 -113.117C-232.488 -113.736 -232.797 -114.3 -233.252 -114.736L-206.217 -161.574L-178.236 -113.099H-232.324V-113.117ZM-207.8 -162.502L-234.853 -115.646C-235.144 -115.719 -235.453 -115.792 -235.78 -115.792C-236.108 -115.792 -236.417 -115.737 -236.708 -115.646L-263.761 -162.502H-207.8ZM-146.58 -162.502H-89.5808L-116.634 -115.646C-116.925 -115.719 -117.234 -115.792 -117.562 -115.792C-119.217 -115.792 -120.6 -114.664 -121 -113.135H-175.088L-146.58 -162.502ZM-114.105 -113.117C-114.269 -113.736 -114.596 -114.3 -115.033 -114.736L-87.998 -161.574L-60.0171 -113.099H-114.105V-113.117ZM-118.089 -213.706L-89.5808 -164.321H-146.58L-175.088 -213.706H-118.089ZM-294.344 -215.526L-322.853 -264.911H-265.854L-237.345 -215.526H-294.344ZM-235.235 -213.706H-178.236L-206.744 -164.321H-263.743L-235.235 -213.706ZM-265.326 -161.592L-238.291 -114.755C-238.728 -114.318 -239.055 -113.754 -239.219 -113.135H-293.307L-265.326 -161.592ZM-322.834 -60.1108H-265.835L-237.327 -10.7258H-294.326L-322.834 -60.1108ZM-234.198 93.4848H-177.199L-148.69 142.87H-205.689L-234.198 93.4848ZM-234.198 194.056L-205.689 144.671H-148.69L-162.935 169.364L-177.181 194.056H-234.198ZM-89.5808 144.689L-103.826 169.382L-116.616 191.545C-116.907 191.472 -117.216 191.399 -117.544 191.399C-119.199 191.399 -120.582 192.528 -120.982 194.056H-175.088L-160.843 169.364L-146.598 144.671H-89.5808V144.689ZM-148.69 247.08L-177.199 296.465H-234.198L-205.689 247.08H-148.69ZM-263.743 347.652L-235.235 298.267H-178.236L-206.744 347.652H-263.743ZM-177.599 396.327L-205.162 348.562L-176.653 299.177L-163.699 321.613L-148.144 348.562L-175.725 396.327C-176.016 396.254 -176.325 396.182 -176.653 396.182C-176.98 396.182 -177.29 396.236 -177.599 396.327ZM-118.089 298.267L-89.5808 347.652H-146.58L-175.088 298.267H-118.089ZM-89.5808 245.261H-146.58L-175.088 195.876H-121C-120.6 197.404 -119.217 198.533 -117.562 198.533C-117.234 198.533 -116.925 198.478 -116.634 198.387L-89.5808 245.261ZM-30.4897 144.689L-58.9983 194.074H-114.141C-114.305 193.456 -114.615 192.892 -115.069 192.455L-101.752 169.4L-87.5068 144.708H-30.4897V144.689ZM-60.0352 93.4848L-88.5438 142.87H-145.543L-117.034 93.4848H-60.0352ZM-148.69 42.2803L-177.181 91.6652H-234.198L-205.689 42.2803H-148.69ZM-207.781 40.4606H-264.798L-293.307 -8.92438H-236.308L-207.781 40.4606ZM-263.725 -60.1108H-206.744L-178.236 -10.7258H-235.235L-263.725 -60.1108ZM-30.4715 40.4606H-87.4704L-115.979 -8.92438H-61.891C-61.4907 -7.39587 -60.108 -6.2677 -58.4525 -6.2677C-58.125 -6.2677 -57.8157 -6.32233 -57.5246 -6.41333L-30.4715 40.4606ZM-147.635 -60.1108L-119.126 -10.7258H-176.125L-204.634 -60.1108H-147.635ZM-263.743 -61.9305L-236.708 -108.786C-236.417 -108.713 -236.108 -108.641 -235.78 -108.641C-234.125 -108.641 -232.742 -109.769 -232.342 -111.297H-178.254L-206.744 -61.9305H-263.743ZM-87.4704 -61.9305L-115.033 -109.678C-114.596 -110.114 -114.269 -110.679 -114.105 -111.297H-58.9619L-30.4533 -61.9122H-87.4704V-61.9305ZM-29.9439 -163.412L-58.4525 -114.027L-86.4334 -162.502L-86.961 -163.412L-86.4334 -164.321L-58.4525 -212.797L-29.9439 -163.412ZM-58.4525 -216.436L-86.961 -265.821L-58.4525 -315.206L-29.9439 -265.821L-58.4525 -216.436Z" fill="url(#paint0_linear_20_45)"/>
</g>
<defs>
<linearGradient id="paint0_linear_20_45" x1="912.782" y1="514.917" x2="-430.445" y2="-415.707" gradientUnits="userSpaceOnUse">
<stop stop-color="#CC8700"/>
<stop offset="0.401042" stop-color="#EAEBEB"/>
<stop offset="0.65625" stop-color="#FBFBFB"/>
<stop offset="1" stop-color="white"/>
</linearGradient>
</defs>
</svg>
