<svg width="438" height="523" viewBox="0 0 438 523" fill="none" xmlns="http://www.w3.org/2000/svg">
<mask id="mask0_20_57" style="mask-type:alpha" maskUnits="userSpaceOnUse" x="-128" y="-66" width="566" height="589">
<rect x="438" y="-66" width="589" height="565.202" transform="rotate(90 438 -66)" fill="#D9D9D9"/>
</mask>
<g mask="url(#mask0_20_57)">
<path d="M-57.5498 492.869H-15.7557L7.00168 453.436H-37.7419L-58.9433 416.709H-14.9845L-37.3496 377.952L-15.7693 340.549H25.24C25.5377 341.685 26.566 342.524 27.7972 342.524C28.0407 342.524 28.2708 342.484 28.4873 342.416L49.1881 378.277L49.3775 378.615H94.8923L72.5273 339.872L94.5135 301.792L72.5408 263.712L94.1346 226.308H137.309L159.674 265.065L182.039 226.308L226.782 226.308L204.214 187.213L204.025 186.875H160.851L180.97 152.029C181.186 152.083 181.416 152.137 181.66 152.137C182.891 152.137 183.919 151.298 184.217 150.161H269.185L290.969 187.903L291.158 188.241L336.673 188.241L314.105 149.146L313.915 148.808L269.956 148.808L248.363 111.404L269.564 74.6774L290.955 111.743L291.144 112.081L336.659 112.081L314.091 72.9858L313.902 72.6475L226.769 72.6475L246.888 37.8016C247.104 37.8557 247.334 37.9098 247.578 37.9098C248.809 37.9098 249.837 37.0708 250.135 35.9341L291.929 35.9341L313.509 -1.41535L334.711 35.3116L334.318 35.9882H335.103L335.496 36.6648L335.888 35.9882H379.847L400.737 -0.210964C400.954 -0.156834 401.184 -0.102703 401.427 -0.102703C402.888 -0.102703 404.079 -1.29356 404.079 -2.75506C404.079 -4.21656 402.888 -5.40741 401.427 -5.40741C400.196 -5.40741 399.168 -4.5684 398.87 -3.43168L357.861 -3.43168L335.496 -42.202L313.523 -4.12183L292.118 -41.1871L291.929 -41.5254L247.97 -41.5254L247.578 -42.202L247.186 -41.5254L203.227 -41.5254L181.646 -4.1489L160.242 -41.2277L160.053 -41.566L114.538 -41.566L137.106 -2.47087L137.295 -2.13256L180.483 -2.13256L180.469 -2.1055L225.213 -2.1055L245.711 33.4035C245.386 33.7283 245.142 34.1478 245.021 34.6079H203.227L181.646 72.0115L160.256 34.9462L160.066 34.6079H116.094L95.6094 -0.87405C96.0965 -1.36122 96.3941 -2.02431 96.3941 -2.75506C96.3941 -4.21656 95.2035 -5.40741 93.7422 -5.40741C92.511 -5.40741 91.4828 -4.5684 91.1851 -3.43168L6.27103 -3.43168L-15.5528 -41.2142L-15.7422 -41.5525L-61.257 -41.5525L-61.2163 -41.4983L-104.431 -41.4983L-126.404 -3.41814H-127.188L-126.796 -2.74152L-127.188 -2.0649H-126.404L-104.621 35.677L-104.431 36.0153H-58.9164L-80.2124 -0.860519C-79.7254 -1.34769 -79.4277 -2.01077 -79.4277 -2.74152C-79.4277 -3.48581 -79.7254 -4.1489 -80.2124 -4.62253L-60.0799 -39.4955L-39.2572 -3.41814H-39.2979L-16.9328 35.3387L-39.2979 74.0955H5.45926L27.229 111.797L27.4184 112.135H69.2124C69.5101 113.272 70.5384 114.111 71.7696 114.111C73.2308 114.111 74.4215 112.92 74.4215 111.458C74.4215 109.997 73.2308 108.806 71.7696 108.806C71.526 108.806 71.2961 108.847 71.0796 108.914L50.3788 73.0535L50.1893 72.7152L7.02872 72.7152L28.2031 36.0288L115.35 36.0288L136.916 73.3918L114.551 112.149L159.281 112.149L179.779 147.658C179.455 147.982 179.211 148.402 179.089 148.862L137.295 148.862L116.405 185.061C116.188 185.007 115.958 184.953 115.715 184.953C115.471 184.953 115.241 184.994 115.025 185.061L94.324 149.2L94.1346 148.862H6.27103L-14.1051 113.57C-13.4286 113.082 -12.9821 112.297 -12.9821 111.404C-12.9821 109.943 -14.1727 108.752 -15.6339 108.752C-16.8651 108.752 -17.8935 109.591 -18.1911 110.728H-61.257L-39.2843 148.808H-82.4584L-105.216 188.241H-59.701L-38.1342 150.878L-16.9193 187.619L-37.4172 223.141C-37.6337 223.087 -37.8637 223.033 -38.1073 223.033C-39.5685 223.033 -40.7591 224.224 -40.7591 225.686C-40.7591 227.147 -39.5685 228.338 -38.1073 228.338C-36.876 228.338 -35.8477 227.499 -35.55 226.362H49.4046L70.9984 263.766L49.797 300.493L28.406 263.427L28.2166 263.089H-15.7422L-16.1346 262.413L-16.5269 263.089H-59.701L-81.4843 225.347L-81.6737 225.009L-127.188 225.009L-104.621 264.104L-104.431 264.442L-61.257 264.442L-82.4584 301.169H-83.2431L-82.8509 301.846L-105.216 340.603L-62.6505 340.603C-62.5287 341.063 -62.2852 341.482 -61.9605 341.807L-82.472 377.303L-127.202 377.303L-105.229 415.383H-105.243L-82.675 454.478L-82.4855 454.816H-39.3113L-59.4305 489.662C-59.6469 489.608 -59.8769 489.554 -60.1205 489.554C-61.5816 489.554 -62.7723 490.745 -62.7723 492.206C-62.7723 493.668 -61.5816 494.859 -60.1205 494.859C-58.8756 494.859 -57.861 494.006 -57.5498 492.869ZM313.131 74.0549L334.332 110.782L291.943 110.782L270.741 74.0549H313.131ZM138.08 -3.48581L116.878 -40.1992L159.268 -40.1992L180.469 -3.47227L138.08 -3.47227V-3.48581ZM-61.2705 34.6485H-103.66L-124.861 -2.0649L-84.6367 -2.0649C-84.3391 -0.928181 -83.3108 -0.0891685 -82.0796 -0.0891685C-81.836 -0.0891685 -81.606 -0.129768 -81.3896 -0.19743L-61.2705 34.6485ZM-84.6367 -3.41814L-124.861 -3.41814L-103.66 -40.1451L-61.2705 -40.1451L-81.3896 -5.29915C-81.606 -5.35328 -81.836 -5.40741 -82.0796 -5.40741C-83.3108 -5.40741 -84.3391 -4.55487 -84.6367 -3.41814ZM-59.7146 415.369L-80.9025 378.656H-38.5131L-17.3117 415.383H-59.7146V415.369ZM-57.5498 339.222C-57.6716 338.762 -57.9016 338.343 -58.2399 338.018L-38.1342 303.186L-17.3252 339.236H-57.5498V339.222ZM6.21695 302.495H48.6063L28.4873 337.341C28.2708 337.287 28.0407 337.233 27.7972 337.233C26.566 337.233 25.5377 338.072 25.24 339.209H-14.9845L6.21695 302.495ZM30.3544 339.222C30.2326 338.762 29.9891 338.343 29.6643 338.018L49.7699 303.186L70.5789 339.236H30.3544V339.222ZM5.03983 301.819L-16.1616 338.546L-25.795 321.86L-37.3631 301.819L-16.1616 265.092L-6.52829 281.777L5.03983 301.819ZM-39.3113 302.495L-59.4305 337.341C-59.6469 337.287 -59.8769 337.233 -60.1205 337.233C-60.364 337.233 -60.594 337.274 -60.8105 337.341L-80.9295 302.495H-39.3113ZM50.1758 377.303L29.6779 341.794C30.0026 341.469 30.2461 341.049 30.3679 340.589H71.3772L92.5652 377.303H50.1758ZM118.272 188.282L158.497 188.282L137.295 225.009H94.9059L115.025 190.149C115.241 190.204 115.471 190.258 115.715 190.258C116.946 190.258 117.974 189.419 118.272 188.282ZM113.158 188.282C113.28 188.742 113.523 189.162 113.848 189.486L93.7422 224.319L72.9331 188.282H113.158ZM138.472 225.672L159.674 188.945L170.065 206.957L180.862 225.672L159.66 262.399L138.472 225.672ZM203.24 188.282L224.442 225.009L182.052 225.009L160.851 188.282H203.24ZM313.131 150.202L334.332 186.929L291.943 186.929L270.741 150.202L313.131 150.202ZM225.998 148.848L219.057 136.832L204.796 112.122H247.186L268.387 148.848H225.998ZM160.837 110.768L171.431 92.4048L182.025 74.0414H224.415L213.821 92.4048L203.227 110.768H160.837ZM268.387 74.0549L247.186 110.782H204.796L215.39 92.4184L225.984 74.0549L268.387 74.0549ZM250.135 34.6215C250.013 34.1614 249.783 33.7419 249.445 33.4171L269.943 -2.09197L312.332 -2.09197L291.131 34.635L250.135 34.635V34.6215ZM379.062 34.6215H336.673L357.874 -2.1055L398.883 -2.1055C399.005 -1.6454 399.235 -1.22589 399.573 -0.901115L379.062 34.6215ZM356.684 -2.76859L335.482 33.9584L314.673 -2.09197L314.281 -2.76859L314.673 -3.44521L335.496 -39.4955L356.684 -2.76859ZM291.144 -40.1722L312.346 -3.44521L269.956 -3.44521L248.755 -40.1722L291.144 -40.1722ZM246.401 -40.1722L225.199 -3.44521L182.81 -3.44521L204.011 -40.1722L246.401 -40.1722ZM226.376 -2.76859L247.578 -39.4955L257.211 -22.8101L268.779 -2.76859L248.281 32.754C248.065 32.6999 247.835 32.6457 247.591 32.6457C247.348 32.6457 247.118 32.6863 246.901 32.754L226.376 -2.76859ZM245.021 35.9747C245.142 36.4348 245.373 36.8543 245.711 37.1791L225.213 72.6881H182.823L204.025 35.9612H245.021V35.9747ZM159.281 35.9747L180.483 72.7017L138.093 72.7017L116.892 35.9747H159.281ZM91.1715 -2.0649C91.4692 -0.928181 92.4975 -0.0891685 93.7287 -0.0891685C93.9723 -0.0891685 94.2022 -0.129768 94.4187 -0.19743L114.538 34.6485L72.1484 34.6485L50.9469 -2.07843L91.1715 -2.07843V-2.0649ZM28.1896 34.6485L6.98813 -2.07843L49.3775 -2.07843L70.5789 34.6485H28.1896ZM-37.7284 -3.48581L-58.9298 -40.1992L-16.5405 -40.1992L4.66098 -3.47227L-37.7284 -3.47227V-3.48581ZM5.43222 -2.0649L26.6336 34.6621L-15.7557 34.6621L-36.9571 -2.0649L5.43222 -2.0649ZM49.391 74.0549L69.8889 109.564C69.5642 109.889 69.3206 110.308 69.1989 110.768H28.1896L6.98813 74.0414L49.391 74.0414V74.0549ZM4.67453 72.7287H-36.9571L-15.7557 36.0018L26.6336 36.0018L5.45926 72.6881H4.66098L4.67453 72.7287ZM116.892 110.768L138.093 74.0414L180.483 74.0414L169.889 92.4048L159.295 110.768L116.892 110.768ZM160.837 112.122H203.227L215.336 133.11L224.415 148.848H184.19C183.892 147.712 182.864 146.873 181.633 146.873C181.389 146.873 181.159 146.913 180.943 146.981L160.837 112.122ZM138.08 150.202L179.089 150.202C179.211 150.662 179.441 151.081 179.779 151.406L159.281 186.915L118.272 186.915C118.15 186.455 117.92 186.036 117.582 185.711L138.08 150.202ZM93.3363 150.202L113.834 185.711C113.51 186.036 113.266 186.455 113.144 186.915H72.1349L71.7425 186.239L50.9335 150.188H93.3363V150.202ZM5.43222 150.202L26.6336 186.929H-15.7557L-36.9571 150.202L5.43222 150.202ZM28.1896 186.929L6.98813 150.202H49.3775L70.5789 186.929H28.1896ZM-58.9298 112.067H-18.2182C-17.9205 113.204 -16.8922 114.043 -15.661 114.043C-15.5798 114.043 -15.4986 114.03 -15.4174 114.016L4.64743 148.781L-37.7419 148.781L-58.9298 112.067ZM-102.889 186.861L-81.6872 150.134H-39.2979L-60.4993 186.861H-102.889ZM-35.5772 224.995C-35.6989 224.535 -35.9289 224.116 -36.2671 223.791L-15.7693 188.282H26.6201L5.41867 225.009H-35.5772V224.995ZM28.1896 188.282H70.5789L49.3775 225.009H6.98813L28.1896 188.282ZM50.5547 225.672L71.7561 188.945L92.9576 225.658L92.5652 226.335L71.7561 262.385L50.5547 225.672ZM92.9576 301.819L71.7561 338.546L50.9469 302.495L50.5547 301.819L50.9469 301.142L71.7561 265.092L92.9576 301.819ZM27.4048 264.429L48.6063 301.156H6.21695L-14.9845 264.429H27.4048ZM-103.673 263.076L-124.875 226.349L-82.4855 226.349L-61.284 263.076L-103.673 263.076ZM-59.7281 264.429H-17.3387L-38.5403 301.156H-80.9295L-59.7281 264.429ZM-82.0932 303.172L-61.9876 338.004C-62.3123 338.329 -62.5559 338.749 -62.6776 339.209L-102.902 339.209L-82.0932 303.172ZM-57.5498 340.576H-17.3252L-38.5266 377.303H-80.916L-60.7969 342.457C-60.5804 342.511 -60.3505 342.565 -60.107 342.565C-58.8757 342.551 -57.861 341.712 -57.5498 340.576ZM-124.861 378.656L-82.4855 378.656L-61.284 415.383L-103.673 415.383L-124.861 378.656ZM-81.7007 453.449L-102.902 416.723L-60.5128 416.723L-39.3113 453.449H-81.7007ZM-37.7419 454.803H4.64743L-16.554 491.53H-57.5633C-57.6851 491.07 -57.915 490.65 -58.2533 490.325L-37.7419 454.803ZM217.731 988.548L239.703 950.468L261.094 987.533L261.284 987.871H305.256L305.648 988.548L306.041 987.871H350L371.58 950.495L392.984 987.574L393.174 987.912H438.689L416.121 948.817L415.931 948.479H372.744L372.757 948.451L328.013 948.451L307.516 912.942C307.84 912.618 308.084 912.198 308.206 911.738L393.945 911.738L415.918 873.658H459.877L480.767 837.459C480.997 837.526 481.227 837.567 481.47 837.567C481.714 837.567 481.944 837.526 482.16 837.459L502.861 873.32L503.051 873.658H546.211L525.037 910.344H436.348L457.631 947.206C457.143 947.694 456.846 948.357 456.846 949.088C456.846 950.549 458.036 951.74 459.498 951.74C460.729 951.74 461.757 950.901 462.055 949.764H546.969L568.793 987.56L568.982 987.899H614.497L592.484 949.764H592.524L570.159 911.021L592.524 872.264H547.767L525.997 834.563L525.808 834.224H484.014C483.716 833.088 482.688 832.249 481.457 832.249C480.226 832.249 479.197 833.088 478.9 834.224H437.106L415.133 872.305H371.959L350.757 835.578L393.931 835.578L415.904 797.497H416.689L416.297 796.821L416.689 796.144H415.904L394.121 758.402L393.931 758.064L348.417 758.064L369.699 794.926C369.212 795.413 368.915 796.077 368.915 796.807C368.915 797.538 369.212 798.215 369.699 798.688L349.201 834.197H260.499L282.864 872.954L261.284 910.358L239.69 947.761L218.488 911.034L218.881 910.358H218.096L217.704 909.681L217.311 910.358H173.353L151.38 948.438H110.371C110.073 947.301 109.045 946.462 107.813 946.462C106.352 946.462 105.162 947.653 105.162 949.115C105.162 950.576 106.352 951.767 107.813 951.767C108.057 951.767 108.287 951.726 108.503 951.659L129.204 987.52L129.394 987.858H174.908L152.936 949.778H195.325L217.731 988.548ZM415.146 949.832L436.348 986.559H393.959L372.757 949.832H415.146ZM262.082 986.518L240.881 949.791H283.27L304.471 986.518H262.082ZM306.826 986.518L328.027 949.791H370.416L349.215 986.518H306.826ZM326.85 949.128L305.648 985.855L296.015 969.17L284.447 949.128L304.945 913.606C305.161 913.66 305.391 913.714 305.635 913.714C305.879 913.714 306.108 913.673 306.325 913.606L326.85 949.128ZM349.201 910.371H308.206C308.084 909.911 307.84 909.492 307.516 909.167L317.42 892.021L328.013 873.658H370.403L359.809 892.021L349.201 910.371ZM525.037 911.697L546.238 948.424H503.849L482.634 911.697H525.037ZM438.689 911.697H481.078L502.279 948.424H462.055C461.757 947.288 460.729 946.449 459.498 946.449C459.254 946.449 459.024 946.489 458.808 946.557L438.689 911.697ZM590.955 949.832L612.156 986.559H569.767L548.565 949.832H590.955ZM547.794 948.424L526.593 911.697H568.982L590.184 948.424H547.794ZM590.184 873.617L568.982 910.344H526.593L547.767 873.658H548.565L548.552 873.631H590.184V873.617ZM546.225 872.305H503.835L483.337 836.796C483.662 836.471 483.906 836.051 484.027 835.591H525.037L546.225 872.305ZM437.904 835.578H478.913C479.035 836.038 479.265 836.457 479.603 836.782L459.105 872.305H416.716L437.904 835.578ZM393.16 910.371L350.771 910.371L361.365 892.008L371.959 873.644H414.348L393.16 910.371ZM350.771 759.431L393.16 759.431L414.362 796.158H374.137C373.84 795.021 372.811 794.182 371.58 794.182C371.336 794.182 371.106 794.223 370.89 794.29L350.771 759.431ZM374.137 797.497H414.362L393.16 834.224L350.771 834.224L370.876 799.378C371.093 799.433 371.323 799.487 371.566 799.487C372.811 799.487 373.84 798.634 374.137 797.497ZM349.201 835.578L370.403 872.305H328.013L306.812 835.578H349.201ZM305.256 835.578L326.458 872.305H284.068L262.867 835.578H305.256ZM284.055 873.658H326.444L315.85 892.021L306.339 908.504C306.122 908.45 305.892 908.396 305.648 908.396C304.417 908.396 303.389 909.234 303.091 910.371H262.867L284.055 873.658ZM303.091 911.724C303.213 912.185 303.443 912.604 303.781 912.929L283.283 948.438H240.894L262.096 911.711H303.091V911.724ZM238.54 948.451L238.932 949.128L238.54 949.805L217.731 985.855L196.529 949.128L217.731 912.401L238.54 948.451ZM216.567 911.724L195.366 948.451H152.976L174.178 911.724H216.567ZM172.608 986.518H130.219L109.721 951.009C110.046 950.684 110.289 950.265 110.411 949.805H151.42L172.608 986.518ZM437.511 761.406C437.755 761.406 437.985 761.366 438.202 761.298L458.902 797.159L459.092 797.497H546.969L567.345 832.803C566.668 833.291 566.222 834.076 566.222 834.969C566.222 836.43 567.413 837.621 568.874 837.621C570.105 837.621 571.133 836.782 571.431 835.645H614.497L592.524 797.565H635.698L658.456 758.132H612.927L591.361 795.495L570.146 758.754L590.644 723.232C590.86 723.286 591.09 723.34 591.334 723.34C592.795 723.34 593.985 722.149 593.985 720.688C593.985 719.226 592.795 718.035 591.334 718.035C590.102 718.035 589.074 718.874 588.776 720.011H548.552H503.808L482.214 682.607L503.416 645.88L524.807 682.946L524.996 683.284H568.996L569.388 683.961L569.78 683.284H612.941L634.724 721.026L634.914 721.364H680.442L657.874 682.269L657.685 681.931H614.51L635.712 645.204H636.497L636.104 644.527L658.469 605.77H615.904C615.782 605.31 615.539 604.891 615.214 604.566L635.698 569.057H680.428L658.456 530.977H658.469L635.901 491.882L635.712 491.543H592.538L613.739 454.816H614.524L614.132 454.14L614.524 453.463H613.739L592.159 416.059L614.524 377.303H569.767L548.565 340.576H591.753L614.51 301.142L636.483 263.062H591.74L571.255 227.594C571.742 227.106 572.04 226.443 572.04 225.713C572.04 224.251 570.849 223.06 569.388 223.06C567.927 223.06 566.736 224.251 566.736 225.713C566.736 226.457 567.034 227.12 567.521 227.594L547.023 263.103L502.279 263.103L524.847 302.198L525.037 302.536L568.211 302.536L547.009 339.263L502.279 339.263L523.562 376.125C523.237 376.45 522.994 376.87 522.872 377.33H481.078L458.321 416.763H502.279L480.307 454.843L525.822 454.843L547.402 417.44L568.59 454.153L546.225 492.91H590.968L612.17 529.637H525.822L504.038 491.895L503.849 491.557H458.334L479.617 528.419C479.13 528.906 478.832 529.569 478.832 530.3C478.832 531.762 480.023 532.952 481.484 532.952C482.715 532.952 483.743 532.113 484.041 530.977H525.05L546.834 568.719L547.023 569.057H590.184L568.982 605.784H527.973C527.675 604.647 526.647 603.808 525.416 603.808C525.172 603.808 524.942 603.849 524.726 603.916L504.025 568.055L503.835 567.717H458.321L480.686 606.474L458.713 644.554L480.686 682.634L458.713 720.715L480.307 758.118H440.082C439.785 756.981 438.756 756.142 437.525 756.142C436.064 756.142 434.873 757.333 434.873 758.795C434.86 760.216 436.05 761.406 437.511 761.406ZM459.877 796.144L439.379 760.635C439.703 760.31 439.947 759.891 440.069 759.431H481.078L481.47 760.107L502.279 796.158H459.877V796.144ZM546.225 721.351L525.023 758.078H482.634L503.835 721.351H546.225ZM525.037 759.431L546.238 796.158H503.849L482.647 759.431H525.037ZM547.794 796.144L526.593 759.417H568.982L590.184 796.144H547.794ZM612.156 834.279H571.445C571.147 833.142 570.119 832.303 568.887 832.303C568.806 832.303 568.725 832.316 568.644 832.33L548.579 797.565H590.955L612.156 834.279ZM656.115 759.485L634.914 796.212H592.524L613.726 759.485H656.115ZM588.79 721.351C588.912 721.811 589.142 722.23 589.48 722.555L568.982 758.064H526.593L547.794 721.337H588.79V721.351ZM548.187 644.527L569.388 607.8L579.021 624.486L590.589 644.527L569.388 681.254L559.755 664.569L548.187 644.527ZM610.776 607.124C610.898 607.584 611.128 608.003 611.466 608.328L591.361 643.16L570.552 607.11H610.776V607.124ZM592.538 643.85L612.657 609.005C612.873 609.059 613.103 609.113 613.347 609.113C613.59 609.113 613.82 609.072 614.037 609.005L634.156 643.85H592.538ZM547.009 643.85H504.62L524.739 609.005C524.956 609.059 525.186 609.113 525.429 609.113C526.66 609.113 527.689 608.274 527.986 607.137H568.211L547.009 643.85ZM522.858 607.124C522.98 607.584 523.224 608.003 523.549 608.328L503.443 643.16L482.634 607.11H522.858V607.124ZM525.822 681.931L504.62 645.204H547.009L568.211 681.931H525.822ZM656.9 683.284L678.101 720.011H635.712L614.51 683.284H656.9ZM612.941 681.931H570.552L591.753 645.204H634.142L612.941 681.931ZM635.32 643.174L615.214 608.341C615.539 608.017 615.782 607.597 615.904 607.137H656.129L635.32 643.174ZM678.088 567.704H635.698L614.497 530.977H656.886L678.088 567.704ZM612.17 453.477H569.78L548.579 416.75H590.968L612.17 453.477ZM612.17 378.683L590.968 415.41H548.579L559.173 397.046L569.767 378.683H612.17ZM504.62 415.396L515.214 397.033L524.726 380.55C524.942 380.605 525.172 380.659 525.416 380.659C526.647 380.659 527.675 379.82 527.973 378.683H568.211L557.617 397.046L547.023 415.41L504.62 415.41V415.396ZM548.579 339.25L569.78 302.523H612.17L590.968 339.25H548.579ZM634.142 264.456L612.941 301.183H570.552L591.753 264.456H634.142ZM570.078 228.257L590.576 263.779L569.374 300.506L559.741 283.821L548.173 263.779L568.684 228.257C568.901 228.311 569.131 228.365 569.374 228.365C569.618 228.365 569.848 228.324 570.078 228.257ZM525.822 301.183L504.62 264.456L547.009 264.456L568.211 301.183H525.822ZM504.62 340.603L547.009 340.603L568.211 377.33H527.986C527.689 376.193 526.66 375.354 525.429 375.354C525.186 375.354 524.956 375.395 524.739 375.462L504.62 340.603ZM460.675 415.396L481.876 378.669H522.886C523.007 379.13 523.237 379.549 523.576 379.874L513.672 397.019L503.078 415.383H460.675V415.396ZM482.647 453.477L503.849 416.75L546.238 416.75L525.037 453.477H482.647ZM548.579 491.557L569.767 454.83H612.17L590.968 491.557H548.579ZM592.524 492.91H634.927L656.129 529.637H613.739L592.524 492.91ZM634.129 567.704H591.753L570.552 530.977H612.941L634.129 567.704ZM460.661 492.91H503.051L524.252 529.637H484.027C483.73 528.5 482.702 527.661 481.47 527.661C481.227 527.661 480.997 527.702 480.78 527.769L460.661 492.91ZM547.794 567.704L526.593 530.977H568.982L590.184 567.704H547.794ZM634.142 569.057L614.037 603.903C613.82 603.849 613.59 603.795 613.347 603.795C612.116 603.795 611.087 604.634 610.79 605.77H570.565L591.753 569.057H634.142ZM503.051 569.057L523.549 604.566C523.224 604.891 522.98 605.31 522.858 605.77H481.849L460.648 569.043H503.051V569.057ZM460.269 644.527L481.47 607.8L502.279 643.85L502.672 644.527L502.279 645.204L481.47 681.254L460.269 644.527ZM481.47 683.961L502.672 720.688L481.47 757.414L460.269 720.688L481.47 683.961Z" fill="url(#paint0_linear_20_57)"/>
</g>
<defs>
<linearGradient id="paint0_linear_20_57" x1="-240.824" y1="140.063" x2="758.117" y2="832.156" gradientUnits="userSpaceOnUse">
<stop stop-color="#CC8700"/>
<stop offset="0.270833" stop-color="#EAEBEB"/>
<stop offset="0.65625" stop-color="#FBFBFB"/>
<stop offset="1" stop-color="white"/>
</linearGradient>
</defs>
</svg>
